<svg width="16" height="16" viewBox="0 0 16 16" fill="none" xmlns="http://www.w3.org/2000/svg">
<path d="M14.2857 1.71428H12.5714V0.571439C12.5714 0.255837 12.3156 0 12 0C11.6844 0 11.4285 0.255837 11.4285 0.571439V1.71428H4.57141V0.571439C4.57141 0.255837 4.31557 0 4.00001 0C3.68444 0 3.42857 0.255837 3.42857 0.571439V1.71428H1.71428C0.767511 1.71428 0 2.4818 0 3.42857V14.2857C0 15.2325 0.767511 16 1.71428 16H14.2857C15.2325 16 16 15.2325 16 14.2857V3.42857C16 2.4818 15.2325 1.71428 14.2857 1.71428ZM14.8571 14.2857C14.8571 14.6013 14.6013 14.8572 14.2857 14.8572H1.71428C1.39868 14.8572 1.14285 14.6013 1.14285 14.2857V6.85713H14.8571V14.2857ZM14.8571 5.71429H1.14285V3.42857C1.14285 3.11296 1.39868 2.85713 1.71428 2.85713H3.42857V3.99997C3.42857 4.31557 3.6844 4.57141 4.00001 4.57141C4.31561 4.57141 4.57145 4.31557 4.57145 3.99997V2.85713H11.4286V3.99997C11.4286 4.31557 11.6844 4.57141 12 4.57141C12.3156 4.57141 12.5715 4.31557 12.5715 3.99997V2.85713H14.2857C14.6013 2.85713 14.8572 3.11296 14.8572 3.42857V5.71429H14.8571Z" fill="#64BC6E"/>
<path d="M11.8193 8.16749C11.5979 7.95361 11.2468 7.95361 11.0254 8.16749L6.85794 12.3349L4.97621 10.4532C4.74921 10.2339 4.38746 10.2402 4.16822 10.4672C3.95434 10.6887 3.95434 11.0397 4.16822 11.2612L6.45394 13.5469C6.6771 13.7699 7.03881 13.7699 7.26193 13.5469L11.8333 8.97549C12.0526 8.74848 12.0463 8.38673 11.8193 8.16749Z" fill="#64BC6E"/>
</svg>
