<svg width="16" height="16" viewBox="0 0 16 16" fill="none" xmlns="http://www.w3.org/2000/svg">
<path d="M7.99999 0C3.58172 0 0 3.58172 0 7.99999C0 12.4183 3.58172 16 7.99999 16C12.4183 16 16 12.4183 16 7.99999C15.9953 3.58369 12.4163 0.00472097 7.99999 0ZM7.99999 14.8571C4.21289 14.8571 1.14285 11.7871 1.14285 7.99999C1.14285 4.21289 4.21289 1.14285 7.99999 1.14285C11.7871 1.14285 14.8571 4.21289 14.8571 7.99999C14.8531 11.7854 11.7854 14.8531 7.99999 14.8571Z" fill="#64BC6E"/>
<path d="M9.33231 4.19055C9.01671 4.19055 8.76087 4.44639 8.76087 4.76199V8.76199H4.76089C4.44529 8.76199 4.18945 9.01783 4.18945 9.33343C4.18945 9.64903 4.44529 9.90483 4.76089 9.90483H9.33231C9.64791 9.90483 9.90375 9.649 9.90375 9.33339V4.76199C9.90375 4.44639 9.64791 4.19055 9.33231 4.19055Z" fill="#64BC6E"/>
</svg>
