<svg width="38" height="38" viewBox="0 0 38 38" fill="none" xmlns="http://www.w3.org/2000/svg">
<circle cx="19" cy="19" r="19" fill="#E8FFEB"/>
<g clip-path="url(#clip0_866_5247)">
<path d="M18.9984 12.4906L11.4105 20.0184C11.3543 20.0754 11.2824 20.1019 11.2206 20.1492V27.3734C11.2206 27.5392 11.2791 27.6982 11.3833 27.8154C11.4875 27.9326 11.6288 27.9984 11.7762 27.9984H26.2206C26.368 27.9984 26.5093 27.9326 26.6135 27.8154C26.7176 27.6982 26.7762 27.5392 26.7762 27.3734V20.1508C26.7171 20.1055 26.647 20.0797 26.5935 20.0258L18.9984 12.4906ZM22.3317 22.6859C22.3317 22.7688 22.3025 22.8483 22.2504 22.9069C22.1983 22.9655 22.1276 22.9984 22.0539 22.9984H20.1095V25.1859C20.1095 25.2688 20.0802 25.3483 20.0281 25.4069C19.9761 25.4655 19.9054 25.4984 19.8317 25.4984H18.1651C18.0914 25.4984 18.0207 25.4655 17.9686 25.4069C17.9165 25.3483 17.8873 25.2688 17.8873 25.1859V22.9984H15.9428C15.8692 22.9984 15.7985 22.9655 15.7464 22.9069C15.6943 22.8483 15.6651 22.7688 15.6651 22.6859V20.8109C15.6651 20.7281 15.6943 20.6486 15.7464 20.59C15.7985 20.5314 15.8692 20.4984 15.9428 20.4984H17.8873V18.3109C17.8873 18.2281 17.9165 18.1486 17.9686 18.09C18.0207 18.0314 18.0914 17.9984 18.1651 17.9984H19.8317C19.9054 17.9984 19.9761 18.0314 20.0281 18.09C20.0802 18.1486 20.1095 18.2281 20.1095 18.3109V20.4984H22.0539C22.1276 20.4984 22.1983 20.5314 22.2504 20.59C22.3025 20.6486 22.3317 20.7281 22.3317 20.8109V22.6859ZM28.814 17.2281L19.9272 8.4C19.6729 8.14129 19.3422 7.99805 18.9993 7.99805C18.6564 7.99805 18.3257 8.14129 18.0713 8.4L9.18242 17.2281C9.12812 17.283 9.08396 17.3493 9.05246 17.4234C9.02096 17.4974 9.00274 17.5778 8.99884 17.6597C8.99494 17.7417 9.00543 17.8238 9.02972 17.9012C9.05401 17.9786 9.09162 18.0499 9.14041 18.1109L9.88381 19.0414C9.93257 19.1025 9.99155 19.1522 10.0574 19.1876C10.1232 19.223 10.1946 19.2435 10.2675 19.2479C10.3403 19.2523 10.4133 19.2405 10.4821 19.2132C10.5509 19.1859 10.6143 19.1435 10.6685 19.0887L18.631 11.1871C18.7325 11.0864 18.8632 11.0308 18.9986 11.0308C19.1339 11.0308 19.2646 11.0864 19.3661 11.1871L27.3286 19.0883C27.3829 19.1432 27.4462 19.1855 27.515 19.2128C27.5839 19.2401 27.6568 19.2519 27.7297 19.2475C27.8025 19.2431 27.8739 19.2226 27.9398 19.1872C28.0056 19.1518 28.0646 19.1021 28.1133 19.041L28.8564 18.1105C28.9547 17.9872 29.0055 17.8249 28.9976 17.6595C28.9897 17.494 28.9236 17.3388 28.814 17.2281V17.2281Z" fill="#64BC6E"/>
</g>
<defs>
<clipPath id="clip0_866_5247">
<rect width="20" height="20" fill="white" transform="translate(9 8)"/>
</clipPath>
</defs>
</svg>
